
        <svg xmlns="http://www.w3.org/2000/svg" xmlns:xlink="http://www.w3.org/1999/xlink" version="1.1" width="3168.5393258426966" height="1248.205183977931" viewBox="0 0 3168.5393258426966 1248.205183977931">
			
			<g transform="scale(8.426966292134832) translate(10, 10)">
				<defs id="SvgjsDefs5782"><linearGradient id="SvgjsLinearGradient5791"><stop id="SvgjsStop5792" stop-color="#8f5e25" offset="0"/><stop id="SvgjsStop5793" stop-color="#fbf4a1" offset="0.5"/><stop id="SvgjsStop5794" stop-color="#8f5e25" offset="1"/></linearGradient><linearGradient id="SvgjsLinearGradient5795"><stop id="SvgjsStop5796" stop-color="#8f5e25" offset="0"/><stop id="SvgjsStop5797" stop-color="#fbf4a1" offset="0.5"/><stop id="SvgjsStop5798" stop-color="#8f5e25" offset="1"/></linearGradient><linearGradient id="SvgjsLinearGradient5799"><stop id="SvgjsStop5800" stop-color="#8f5e25" offset="0"/><stop id="SvgjsStop5801" stop-color="#fbf4a1" offset="0.5"/><stop id="SvgjsStop5802" stop-color="#8f5e25" offset="1"/></linearGradient><linearGradient id="SvgjsLinearGradient5803"><stop id="SvgjsStop5804" stop-color="#8f5e25" offset="0"/><stop id="SvgjsStop5805" stop-color="#fbf4a1" offset="0.5"/><stop id="SvgjsStop5806" stop-color="#8f5e25" offset="1"/></linearGradient></defs><g id="SvgjsG5783" featureKey="YvLwfh-0" transform="matrix(1.2797514232831142,0,0,1.2797514232831142,-14.41246177866428,0.14520718110149308)" fill="#000"><path xmlns="http://www.w3.org/2000/svg" d="M61.593,46.267l0.004,0.021l0.005,0.021c0.038,0.222,0.797,0.109,0.984-0.134l0.007-0.004  c2.208-2.732,5.82-2.428,8.966-2.792c2.021-0.233,4.051-0.587,5.985-1.222c4.405-1.444,6.639-6.494,9.865-9.446  c0.22-0.2,0.043-0.302-0.192-0.302c-5.819-0.023-12.049-0.503-17.617,1.562C64.359,35.915,62.841,41.29,61.593,46.267"/><path xmlns="http://www.w3.org/2000/svg" d="M47.388,21.693c-0.955,4.124,1.494,10.174,4.587,12.904c0.129,0.115,0.324,0.122,0.501,0.065  c0.137-0.028,0.263-0.095,0.339-0.208c4.706-6.957,11.15-16.488,5.445-24.755c-0.212-0.309-0.711-0.16-0.919,0.066  C53.616,13.84,48.722,15.943,47.388,21.693"/><path xmlns="http://www.w3.org/2000/svg" d="M34.734,51.221l0.117-0.059l0.035-0.021l0.096-0.082l0.002-0.003l0.034-0.059l0.014-0.058l0.008-0.023v-0.239  c0-0.102-0.156-0.135-0.347-0.121c-5.661-5.514-14.308-4.793-20.791-8.892c-0.179-0.113-1.148,0.005-1.01,0.333  c1.693,4.052,2.977,8.907,7.075,11.195c4.74,2.644,10.286-0.031,14.734-1.956L34.734,51.221z"/><path xmlns="http://www.w3.org/2000/svg" d="M38.014,65.277c2.927-3.315,2.48-7.552,2.438-11.654c-0.002-0.156-0.257-0.186-0.514-0.13l-0.214,0.062  c-3.461,1.68-7.188,2.932-9.8,5.896c-2.876,3.259-1.969,8.294-2.962,12.235c-0.097,0.387,0.72,0.149,0.845,0.08  C31.349,69.799,35.268,68.384,38.014,65.277"/><path xmlns="http://www.w3.org/2000/svg" d="M26.812,36.294l0.088,0l0.062-0.01c0.299-0.045,0.592-0.247,0.503-0.518c-1.025-3.133-1.885-7.154-4.471-9.445  c-2.563-2.271-6.516-2.166-9.677-1.604c-0.317,0.056-0.584,0.419-0.303,0.672c2.637,2.381,2.634,6.229,5.3,8.521  c2.213,1.901,5.74,1.89,8.448,2.382H26.812z"/><path xmlns="http://www.w3.org/2000/svg" d="M82.325,65.637c-3.229-1.935-6.361-4.34-10.181-4.881c-3.393-0.482-6.024,0.671-9.221,1.685  c-0.145,0.047-0.219,0.106-0.249,0.171l0.004,0.23c1.987,3.205,5.032,6.789,8.965,7.415c4.424,0.703,6.754-2.553,10.577-4.065  C82.469,66.094,82.599,65.802,82.325,65.637"/><path xmlns="http://www.w3.org/2000/svg" d="M66.488,53.189c-0.074,0.113-0.059,0.194,0.008,0.247c0.033,0.039,0.088,0.073,0.172,0.099  c5.892,1.838,10.949,0.225,15.351-3.984c0.233-0.224,0.013-0.424-0.235-0.45C76.113,48.517,70.03,47.784,66.488,53.189"/><path xmlns="http://www.w3.org/2000/svg" d="M36.259,22.924c0.292,0.257,0.899-0.019,0.928-0.349c2.331-2.359,1.812-5.882,0.568-8.673  c-1.592-3.574-6.044-2.686-8.583-4.823c-0.317-0.269-0.988,0.019-0.922,0.455c0.487,3.17,0.644,6.359,2.29,9.193  C31.834,20.958,34.413,21.307,36.259,22.924"/><path xmlns="http://www.w3.org/2000/svg" d="M61.094,26.182c2.436,0.011,5.171,0.302,7.552-0.338c3.041-0.816,5.266-4.345,7.855-6.025  c0.196-0.127,0.305-0.353,0.001-0.418c-2.825-0.601-6.36-1.79-9.183-0.468c-3.043,1.423-4.813,4.166-6.504,6.961l-0.013,0.16  C60.8,26.126,60.879,26.182,61.094,26.182"/><path xmlns="http://www.w3.org/2000/svg" d="M27.572,44.208c2.506,1.403,5.173,1.063,7.126-1.006l0.062-0.123c-2.381-4.594-7.229-5.546-11.708-3.465  c-0.085,0.04-0.291,0.149-0.187,0.263C24.377,41.537,25.57,43.085,27.572,44.208"/><path xmlns="http://www.w3.org/2000/svg" d="M46.889,66.067c-0.068-1.976-0.748-3.919-0.491-5.895l-0.01-0.149c-0.078-0.279-0.758-0.188-0.971,0.074  c-2.01,1.576-3.833,3.195-5.092,5.45c-1.865,3.337-2.668,7.343-3.627,10.999c-0.079,0.302,0.456,0.263,0.602,0.227  c3.27-0.812,6.073-2.246,7.991-5.1C46.345,70.106,46.953,67.941,46.889,66.067"/><path xmlns="http://www.w3.org/2000/svg" d="M27.847,23.859l0.06-0.002c0.303,0.021,0.654-0.142,0.648-0.429c-0.086-3.579-1.304-6.376-4.179-8.562  c-4.183-3.182-8.807-4.563-12.107-8.953c-0.23-0.306-1.016-0.167-1.007,0.27c0.074,4.389,1.121,9.062,4.458,12.18  C18.974,21.405,23.5,23.147,27.847,23.859"/><path xmlns="http://www.w3.org/2000/svg" d="M89.017,59.001c-1.857,0.337-2.729-1.299-3.842-2.437c-0.712-0.729-1.604-0.884-2.577-0.932  c-2.29-0.108-5.108,0.54-7.085,1.715c-0.087,0.054-0.148,0.112-0.194,0.173c-0.157,0.16-0.215,0.354-0.031,0.472  c1.164,0.736,2.037,1.799,3.06,2.705c1.291,1.139,2.91,1.672,4.576,1.951c2.824,0.474,4.101-1.602,6.189-2.954  C89.437,59.484,89.591,58.896,89.017,59.001"/><path xmlns="http://www.w3.org/2000/svg" d="M63.553,71.891c-0.315-0.094-0.96,0.14-0.881,0.409c0.49,1.661,0.48,4.793,2.503,5.411c1.983,0.606,4.288-0.717,6.353-0.411  c0.178,0.026,1.072-0.14,0.81-0.47C70.257,74.188,66.967,72.078,63.553,71.891"/><path xmlns="http://www.w3.org/2000/svg" d="M44.815,18.733l0.019,0.019l0.007,0.007c0.197,0.267,0.938,0.059,1.025-0.195c2.535-2.571,4.465-5.096,5.426-8.632  c0.951-3.483,0.211-7.266-2.224-9.94c-0.196-0.217-0.733-0.06-0.904,0.12c-2.537,2.633-4.152,5.468-5.178,8.963  c-0.409,1.391-0.82,2.631-0.572,4.069C42.75,15.095,43.937,16.988,44.815,18.733"/><path xmlns="http://www.w3.org/2000/svg" d="M43.25,33.75c0,0,5.75-4.25,0.75-12c-1.25-2.5-5.5,1.25-4.75,6.25S43.25,33.75,43.25,33.75z"/><path xmlns="http://www.w3.org/2000/svg" d="M37.833,32.917c0,0,0.333-6.834-4.5-7.667s-6.75-0.333-6.75-0.333S28.25,33.75,37.833,32.917z"/><path xmlns="http://www.w3.org/2000/svg" d="M45.048,84.649C43.866,90.101,44.392,95,46.572,100h21.264c-3.964-7-7.68-15.628-8.312-23.473  c-0.597-7.392,0.046-16.431,5.229-22.1c0.067-0.072,0.059-0.171-0.052-0.19c-3.198-0.606-5.769-2.199-8.065-4.224  c1.29-6.444,2.861-12.762,4.916-19.035c0.136-0.414-0.87-0.178-1.011,0.052c-2.823,4.662-5.858,9.777-7.652,15.183  c-0.906-1.007-1.799-2.032-2.708-3.032c-4.5-4.953-10.533-7.23-16.861-8.456c-0.14-0.027-1.181,0.17-0.917,0.415  C41.504,43.555,50.56,52.41,49.13,66.104C48.472,72.403,46.385,78.491,45.048,84.649z"/></g><g id="SvgjsG5784" featureKey="textGroupContainer" transform="matrix(1,0,0,1,355,13)" fill="#000"><rect xmlns="http://www.w3.org/2000/svg" y="0" height="1" width="1" opacity="0"/><rect xmlns="http://www.w3.org/2000/svg" y="0" x="-235" width="3" height="102"/></g><g id="SvgjsG5785" featureKey="JZW510-0" transform="matrix(2.2084806249094346,0,0,2.2084806249094346,136.93992820483442,27.11837398524669)" fill="#000"><path d="M6.3 5.380000000000001 c1.7467 0 3.1366 0.40002 4.17 1.2 s1.55 1.9333 1.55 3.4 l-3.04 0 c-0.04 -0.72 -0.28334 -1.26 -0.73 -1.62 s-1.1367 -0.54 -2.07 -0.54 c-0.65334 0 -1.18 0.14334 -1.58 0.43 s-0.6 0.68332 -0.6 1.19 c0 0.41334 0.12334 0.71334 0.37 0.9 s0.59666 0.35332 1.05 0.49998 s1.2467 0.36 2.38 0.64 c1.1867 0.29334 2.1 0.61334 2.74 0.96 s1.1267 0.79 1.46 1.33 s0.5 1.2033 0.5 1.99 c0 0.90666 -0.24 1.7133 -0.72 2.42 s-1.18 1.2433 -2.1 1.61 s-1.96 0.55 -3.12 0.55 c-1.7733 0 -3.23 -0.44334 -4.37 -1.33 s-1.71 -2.1034 -1.71 -3.65 l0 -0.1 l3.04 0 c0 0.84 0.28666 1.49 0.86 1.95 s1.3333 0.69 2.28 0.69 c0.84 0 1.5167 -0.15 2.03 -0.45 s0.77 -0.74334 0.77 -1.33 c0 -0.38666 -0.14 -0.71332 -0.42 -0.97998 s-0.65334 -0.48332 -1.12 -0.64998 s-1.2533 -0.37666 -2.36 -0.63 c-1.28 -0.32 -2.2134 -0.66 -2.8 -1.02 s-1.0333 -0.79666 -1.34 -1.31 s-0.46 -1.13 -0.46 -1.85 c0 -0.89334 0.25666 -1.6733 0.77 -2.34 s1.1833 -1.16 2.01 -1.48 s1.68 -0.48 2.56 -0.48 z M16.1 9.66 l1.9 7.02 l0.04 0 l1.72 -7.02 l2.76 0 l1.76 7 l0.04 0 l1.9 -7 l2.92 0 l-3.26 10.34 l-2.92 0 l-1.84 -6.94 l-0.04 0 l-1.76 6.94 l-2.94 0 l-3.28 -10.34 l3 0 z M35.1 9.38 c3.0134 0.01334 4.52 0.9933 4.52 2.94 l0 5.48 c0 1.0133 0.12 1.7467 0.36 2.2 l-2.88 0 c-0.10666 -0.32 -0.17332 -0.65334 -0.19998 -1 c-0.84 0.85334 -2 1.28 -3.48 1.28 c-1.08 0 -1.9367 -0.27334 -2.57 -0.82 s-0.95 -1.3067 -0.95 -2.28 c0 -0.94666 0.3 -1.68 0.9 -2.2 c0.61334 -0.54666 1.7267 -0.89332 3.34 -1.04 c1.1467 -0.12 1.8733 -0.27 2.18 -0.45 s0.46 -0.45666 0.46 -0.83 c0 -0.46666 -0.14 -0.81332 -0.42 -1.04 s-0.74666 -0.34 -1.4 -0.34 c-0.6 0 -1.0533 0.12334 -1.36 0.37 s-0.48666 0.64332 -0.54 1.19 l-2.84 0 c0.06666 -1.1333 0.53332 -1.9933 1.4 -2.58 s2.0266 -0.88 3.48 -0.88 z M32.74 17.06 c0 0.88 0.58 1.32 1.74 1.32 c1.52 -0.01334 2.2866 -0.79334 2.3 -2.34 l0 -1.1 c-0.22666 0.22666 -0.8 0.39332 -1.72 0.49998 c-0.8 0.09334 -1.3867 0.25668 -1.76 0.49002 s-0.56 0.61 -0.56 1.13 z M51.900000000000006 5.720000000000001 l0 14.28 l-2.7 0 l0 -1.32 l-0.04 0 c-0.61334 1.0667 -1.66 1.6 -3.14 1.6 c-1.4267 0 -2.5566 -0.52 -3.39 -1.56 s-1.25 -2.3666 -1.25 -3.98 c0 -1.5733 0.42334 -2.86 1.27 -3.86 s1.95 -1.5 3.31 -1.5 c0.62666 0 1.2167 0.13 1.77 0.39 s0.98334 0.64334 1.29 1.15 l0.04 0 l0 -5.2 l2.84 0 z M44.22 14.82 c0 0.94666 0.22332 1.7367 0.66998 2.37 s1.0567 0.95 1.83 0.95 c0.81334 0 1.4233 -0.29666 1.83 -0.89 s0.61 -1.41 0.61 -2.45 s-0.21334 -1.8467 -0.64 -2.42 s-1.0333 -0.86 -1.82 -0.86 c-0.81334 0 -1.43 0.3 -1.85 0.9 s-0.63 1.4 -0.63 2.4 z M58.82 9.38 c0.97334 0 1.84 0.22664 2.6 0.67998 s1.3567 1.11 1.79 1.97 s0.65 1.85 0.65 2.97 c0 0.10666 -0.0066602 0.28 -0.02 0.52 l-7.46 0 c0.02666 0.82666 0.24332 1.47 0.64998 1.93 s1.03 0.69 1.87 0.69 c0.52 0 0.99666 -0.13 1.43 -0.39 s0.71 -0.57666 0.83 -0.95 l2.5 0 c-0.73334 2.32 -2.3466 3.48 -4.84 3.48 c-0.94666 -0.01334 -1.8233 -0.22 -2.63 -0.62 s-1.45 -1.0233 -1.93 -1.87 s-0.72 -1.83 -0.72 -2.95 c0 -1.0533 0.24334 -2.0134 0.73 -2.88 s1.1333 -1.5133 1.94 -1.94 s1.6767 -0.64 2.61 -0.64 z M61 13.719999999999999 c-0.13334 -0.77334 -0.38 -1.3333 -0.74 -1.68 s-0.87334 -0.52 -1.54 -0.52 c-0.69334 0 -1.24 0.19666 -1.64 0.59 s-0.63334 0.93 -0.7 1.61 l4.62 0 z M69.75999999999999 9.38 c1.3867 0 2.47 0.28002 3.25 0.84002 s1.2167 1.38 1.31 2.46 l-2.7 0 c-0.04 -0.49334 -0.22 -0.85 -0.54 -1.07 s-0.78666 -0.33 -1.4 -0.33 c-0.53334 0 -0.93 0.08 -1.19 0.24 s-0.39 0.4 -0.39 0.72 c0 0.24 0.08666 0.44 0.26 0.6 s0.43668 0.3 0.79002 0.42 s0.74334 0.22 1.17 0.3 c1.2933 0.25334 2.2066 0.51334 2.74 0.78 s0.92334 0.58666 1.17 0.96 s0.37 0.83334 0.37 1.38 c0 1.16 -0.42334 2.05 -1.27 2.67 s-1.9967 0.93 -3.45 0.93 c-1.52 0 -2.7034 -0.32666 -3.55 -0.98 s-1.2833 -1.54 -1.31 -2.66 l2.7 0 c0 0.53334 0.20666 0.95668 0.62 1.27 s0.93334 0.47 1.56 0.47 c0.53334 0 0.97668 -0.11666 1.33 -0.35 s0.53 -0.55668 0.53 -0.97002 c0 -0.26666 -0.11 -0.48666 -0.33 -0.66 s-0.53 -0.32668 -0.93 -0.46002 s-1.02 -0.28668 -1.86 -0.46002 c-0.66666 -0.13334 -1.26 -0.31334 -1.78 -0.54 s-0.91666 -0.52332 -1.19 -0.88998 s-0.41 -0.81666 -0.41 -1.35 c0 -0.68 0.16334 -1.2733 0.49 -1.78 s0.82666 -0.89 1.5 -1.15 s1.51 -0.39 2.51 -0.39 z M79.1 5.720000000000001 l0 5.38 l0.06 0 c0.32 -0.53334 0.75334 -0.95334 1.3 -1.26 s1.1267 -0.46 1.74 -0.46 c1.32 0 2.2766 0.33334 2.87 1 s0.89 1.72 0.89 3.16 l0 6.46 l-2.84 0 l0 -5.88 c0 -0.84 -0.13666 -1.4667 -0.41 -1.88 s-0.74334 -0.62 -1.41 -0.62 c-0.76 0 -1.3167 0.23 -1.67 0.69 s-0.53 1.2167 -0.53 2.27 l0 5.42 l-2.84 0 l0 -14.28 l2.84 0 z M91.03999999999999 5.720000000000001 l0 2.34 l-2.84 0 l0 -2.34 l2.84 0 z M91.03999999999999 9.66 l0 10.34 l-2.84 0 l0 -10.34 l2.84 0 z"/></g><g id="SvgjsG5786" featureKey="zdvuGz-0" transform="matrix(0.5711081920226679,0,0,0.5711081920226679,137.2575595137659,78.63046134027553)" fill="#000"><path d="M1.3 6.300000000000001 c0 -0.2 0.1 -0.3 0.3 -0.3 l1.16 0 c0.2 0 0.3 0.1 0.3 0.3 l0 13.4 c0 0.2 -0.1 0.3 -0.3 0.3 l-1.16 0 c-0.2 0 -0.3 -0.1 -0.3 -0.3 l0 -13.4 z M22.524499999999996 6 c0.2 0 0.3 0.1 0.3 0.3 l0 13.4 c0 0.2 -0.1 0.3 -0.3 0.3 l-1.76 0 c-0.16 0 -0.28 -0.06 -0.36 -0.22 l-5.2 -11.24 l0 11.16 c0 0.2 -0.1 0.3 -0.3 0.3 l-1.14 0 c-0.2 0 -0.3 -0.1 -0.3 -0.3 l0 -13.4 c0 -0.2 0.1 -0.3 0.3 -0.3 l1.76 0 c0.16 0 0.28 0.06 0.36 0.22 l5.2 11.22 l0 -11.14 c0 -0.2 0.1 -0.3 0.3 -0.3 l1.14 0 z M42.169 15.74 c0.22 0 0.34 0.12 0.34 0.34 c-0.12 2.64 -1.48 4.02 -4.02 4.02 l-1.54 0 c-2.64 0 -4.02 -1.5 -4.02 -4.16 l0 -5.88 c0 -2.66 1.38 -4.16 4.02 -4.16 l1.54 0 c2.54 0 3.9 1.38 4.02 4.02 c0 0.22 -0.12 0.34 -0.34 0.34 l-1.04 0 c-0.22 0 -0.36 -0.12 -0.36 -0.34 c-0.08 -1.78 -0.76 -2.44 -2.28 -2.44 l-1.54 0 c-1.62 0 -2.28 0.74 -2.28 2.58 l0 5.88 c0 1.84 0.66 2.58 2.28 2.58 l1.54 0 c1.52 0 2.2 -0.66 2.28 -2.44 c0 -0.22 0.14 -0.34 0.36 -0.34 l1.04 0 z M62.0935 19.6 c0.1 0.24 -0.02 0.4 -0.28 0.4 l-1.12 0 c-0.18 0 -0.34 -0.08 -0.4 -0.26 l-2.02 -4.56 c-0.16 0.02 -0.32 0.02 -0.5 0.02 l-3.42 0 l0 4.5 c0 0.2 -0.1 0.3 -0.3 0.3 l-1.14 0 c-0.2 0 -0.3 -0.1 -0.3 -0.3 l0 -13.4 c0 -0.2 0.1 -0.3 0.3 -0.3 l1.14 0 l3.72 0 c2.6 0 3.96 1.4 3.96 4 l0 1.2 c0 1.74 -0.62 2.96 -1.82 3.56 z M54.3535 13.620000000000001 l3.42 0 c1.56 0 2.22 -0.64 2.22 -2.42 l0 -1.2 c0 -1.78 -0.66 -2.42 -2.22 -2.42 l-3.42 0 l0 6.04 z M79.69800000000001 7.58 l-6.02 0 l0 4.76 l4.6 0 c0.2 0 0.3 0.1 0.3 0.3 l0 0.98 c0 0.2 -0.1 0.3 -0.3 0.3 l-4.6 0 l0 4.5 l6.12 0 c0.2 0 0.3 0.1 0.3 0.3 l0 0.98 c0 0.2 -0.1 0.3 -0.3 0.3 l-7.56 0 c-0.2 0 -0.3 -0.1 -0.3 -0.3 l0 -13.4 c0 -0.2 0.1 -0.3 0.3 -0.3 l7.46 0 c0.2 0 0.3 0.1 0.3 0.3 l0 0.98 c0 0.2 -0.1 0.3 -0.3 0.3 z M95.2025 6 c2.56 0 3.92 1.4 3.92 3.96 l0 6.08 c0 2.56 -1.36 3.96 -3.92 3.96 l-4.28 0 l-0.72 0 c-0.2 0 -0.3 -0.1 -0.3 -0.3 l0 -13.4 c0 -0.2 0.1 -0.3 0.3 -0.3 l1.14 0 l3.86 0 z M97.38250000000001 16.04 l0 -6.08 c0 -1.74 -0.66 -2.38 -2.18 -2.38 l-3.56 0 l0 10.84 l3.56 0 c1.52 0 2.18 -0.64 2.18 -2.38 z M109.127 6.300000000000001 c0 -0.2 0.1 -0.3 0.3 -0.3 l1.16 0 c0.2 0 0.3 0.1 0.3 0.3 l0 13.4 c0 0.2 -0.1 0.3 -0.3 0.3 l-1.16 0 c-0.2 0 -0.3 -0.1 -0.3 -0.3 l0 -13.4 z M130.8115 19.66 c0.08 0.22 -0.04 0.34 -0.24 0.34 l-1.12 0 c-0.2 0 -0.3 -0.12 -0.38 -0.34 l-0.76 -2.6 l-5.28 0 l-0.76 2.6 c-0.06 0.22 -0.18 0.34 -0.38 0.34 l-1.12 0 c-0.2 0 -0.3 -0.12 -0.24 -0.34 l4.04 -13.34 c0.06 -0.2 0.2 -0.32 0.38 -0.32 l1.42 0 c0.18 0 0.32 0.12 0.38 0.32 z M123.47149999999999 15.54 l4.4 0 l-2.2 -7.42 z M148.116 12.42 c0.94 0.54 1.56 1.52 1.56 3.04 l0 0.84 c0 2.62 -1.38 3.7 -4.02 3.7 l-4.2 0 l-0.7 0 c-0.2 0 -0.3 -0.1 -0.3 -0.3 l0 -13.4 c0 -0.2 0.1 -0.3 0.3 -0.3 l1.14 0 l3.72 0 c2.4 0 3.5 1.12 3.5 3.66 c0 1.26 -0.38 2.16 -1 2.76 z M147.376 9.66 c0 -1.7 -0.4 -2.08 -1.76 -2.08 l-3.42 0 l0 4.28 l3.42 0 c1.36 0 1.76 -0.5 1.76 -2.2 z M147.936 16.3 l0 -0.84 c0 -1.78 -0.68 -2.16 -2.28 -2.16 l-3.46 0 l0 5.12 l3.46 0 c1.6 0 2.28 -0.36 2.28 -2.12 z M166.8205 18.42 c0.2 0 0.3 0.1 0.3 0.3 l0 0.98 c0 0.2 -0.1 0.3 -0.3 0.3 l-6.94 0 c-0.2 0 -0.3 -0.1 -0.3 -0.3 l0 -13.4 c0 -0.2 0.1 -0.3 0.3 -0.3 l1.14 0 c0.2 0 0.3 0.1 0.3 0.3 l0 12.12 l5.5 0 z M184.68500000000003 7.58 l-6.02 0 l0 4.76 l4.6 0 c0.2 0 0.3 0.1 0.3 0.3 l0 0.98 c0 0.2 -0.1 0.3 -0.3 0.3 l-4.6 0 l0 4.5 l6.12 0 c0.2 0 0.3 0.1 0.3 0.3 l0 0.98 c0 0.2 -0.1 0.3 -0.3 0.3 l-7.56 0 c-0.2 0 -0.3 -0.1 -0.3 -0.3 l0 -13.4 c0 -0.2 0.1 -0.3 0.3 -0.3 l7.46 0 c0.2 0 0.3 0.1 0.3 0.3 l0 0.98 c0 0.2 -0.1 0.3 -0.3 0.3 z M208.59400000000005 6.300000000000001 c0 -0.2 0.1 -0.3 0.3 -0.3 l1.16 0 c0.2 0 0.3 0.1 0.3 0.3 l0 13.4 c0 0.2 -0.1 0.3 -0.3 0.3 l-1.16 0 c-0.2 0 -0.3 -0.1 -0.3 -0.3 l0 -13.4 z M229.81850000000003 6 c0.2 0 0.3 0.1 0.3 0.3 l0 13.4 c0 0.2 -0.1 0.3 -0.3 0.3 l-1.76 0 c-0.16 0 -0.28 -0.06 -0.36 -0.22 l-5.2 -11.24 l0 11.16 c0 0.2 -0.1 0.3 -0.3 0.3 l-1.14 0 c-0.2 0 -0.3 -0.1 -0.3 -0.3 l0 -13.4 c0 -0.2 0.1 -0.3 0.3 -0.3 l1.76 0 c0.16 0 0.28 0.06 0.36 0.22 l5.2 11.22 l0 -11.14 c0 -0.2 0.1 -0.3 0.3 -0.3 l1.14 0 z M245.82300000000004 6 c2.56 0 3.92 1.4 3.92 3.96 l0 6.08 c0 2.56 -1.36 3.96 -3.92 3.96 l-4.28 0 l-0.72 0 c-0.2 0 -0.3 -0.1 -0.3 -0.3 l0 -13.4 c0 -0.2 0.1 -0.3 0.3 -0.3 l1.14 0 l3.86 0 z M248.00300000000004 16.04 l0 -6.08 c0 -1.74 -0.66 -2.38 -2.18 -2.38 l-3.56 0 l0 10.84 l3.56 0 c1.52 0 2.18 -0.64 2.18 -2.38 z M259.74750000000006 6.300000000000001 c0 -0.2 0.1 -0.3 0.3 -0.3 l1.16 0 c0.2 0 0.3 0.1 0.3 0.3 l0 13.4 c0 0.2 -0.1 0.3 -0.3 0.3 l-1.16 0 c-0.2 0 -0.3 -0.1 -0.3 -0.3 l0 -13.4 z M281.4320000000001 19.66 c0.08 0.22 -0.04 0.34 -0.24 0.34 l-1.12 0 c-0.2 0 -0.3 -0.12 -0.38 -0.34 l-0.76 -2.6 l-5.28 0 l-0.76 2.6 c-0.06 0.22 -0.18 0.34 -0.38 0.34 l-1.12 0 c-0.2 0 -0.3 -0.12 -0.24 -0.34 l4.04 -13.34 c0.06 -0.2 0.2 -0.32 0.38 -0.32 l1.42 0 c0.18 0 0.32 0.12 0.38 0.32 z M274.09200000000004 15.54 l4.4 0 l-2.2 -7.42 z"/></g>
			</g>
		</svg>
	